<?xml version="1.0" standalone="no"?>
<!DOCTYPE svg PUBLIC "-//W3C//DTD SVG 20010904//EN"
 "http://www.w3.org/TR/2001/REC-SVG-20010904/DTD/svg10.dtd">
<svg version="1.0" xmlns="http://www.w3.org/2000/svg"
 width="208.000000pt" height="248.000000pt" viewBox="0 0 208.000000 248.000000"
 preserveAspectRatio="xMidYMid meet">

<g transform="translate(0.000000,248.000000) scale(0.100000,-0.100000)"
fill="#000000" stroke="none">
<path d="M1094 2295 c-49 -11 -109 -41 -148 -74 -25 -21 -89 -122 -82 -129 3
-3 6 0 6 7 0 7 5 9 11 5 8 -4 8 -9 0 -17 -7 -7 -7 -14 0 -24 7 -8 8 -18 3 -25
-5 -7 -9 -22 -8 -33 1 -11 2 -37 3 -57 1 -31 4 -36 19 -32 12 4 13 3 4 -3 -7
-6 -12 -16 -10 -24 2 -11 -8 -13 -42 -12 l-45 2 -27 -62 c-25 -59 -26 -62 -7
-65 45 -8 5 -32 -53 -32 l-27 0 6 -87 c3 -49 7 -90 9 -92 1 -2 27 11 57 28 30
17 59 31 66 31 18 0 61 -42 54 -53 -10 -16 -21 -87 -14 -87 3 0 12 9 19 21 11
18 19 20 50 14 20 -3 50 -13 66 -21 29 -14 29 -14 11 6 -10 11 -22 17 -26 14
-5 -3 -6 2 -3 11 9 21 -25 46 -53 40 -29 -7 -30 13 -1 24 22 8 22 8 -6 26 -19
12 -30 15 -34 8 -5 -8 -15 -5 -31 8 -23 19 -21 23 11 20 12 -2 20 11 29 41 7
24 18 50 26 59 18 21 16 28 -6 22 -24 -6 -33 18 -14 42 11 14 17 16 20 8 3 -7
11 -13 18 -13 8 0 26 -11 41 -25 l26 -24 -36 -34 c-20 -19 -36 -40 -36 -46 0
-28 22 -49 57 -56 58 -10 86 -32 79 -61 -5 -18 -3 -22 9 -18 10 4 24 -13 47
-63 18 -37 36 -69 41 -71 4 -2 7 -9 7 -15 0 -21 67 -67 87 -60 15 5 14 3 -3
-13 -30 -27 -63 -146 -62 -224 0 -45 -8 -89 -26 -143 -14 -42 -26 -80 -26 -84
0 -19 56 50 82 102 17 33 48 76 69 95 25 22 41 47 44 67 7 41 -10 87 -29 80
-20 -8 -38 17 -34 45 3 22 4 22 20 -7 l17 -30 7 45 c4 25 9 39 12 32 6 -18 29
-15 42 6 10 15 11 14 6 -7 -3 -14 0 -31 6 -38 7 -9 7 -41 -2 -110 -7 -54 -10
-114 -8 -133 l4 -35 13 30 c8 17 15 37 16 45 11 79 73 198 89 171 8 -13 -11
-61 -24 -61 -5 0 -10 -4 -10 -10 0 -5 14 -10 30 -10 17 0 30 -5 30 -11 0 -5
16 5 35 23 29 28 37 46 50 112 9 43 14 84 11 91 -2 7 0 17 6 23 7 7 6 17 -2
32 -13 25 -3 43 11 18 26 -46 92 -118 114 -124 27 -7 55 10 55 32 0 15 -65
146 -126 254 l-37 64 27 136 c14 74 26 153 26 175 -1 94 -95 218 -205 269 -33
16 -68 37 -78 47 -19 20 -42 25 -51 11 -3 -5 -38 -3 -78 4 -129 21 -142 21
-194 9z m291 -175 c3 -5 15 -10 26 -10 11 0 22 -7 24 -15 16 -51 14 -49 35
-30 16 14 22 15 35 5 8 -7 13 -16 10 -20 -4 -7 35 -20 76 -25 30 -4 41 -17 35
-40 -5 -19 -2 -24 16 -27 16 -2 24 -11 26 -30 2 -20 -5 -32 -32 -53 -20 -15
-36 -35 -36 -45 0 -25 -29 -48 -40 -31 -6 10 -13 10 -33 -4 -25 -16 -27 -16
-48 9 -17 20 -35 27 -81 32 -33 4 -65 13 -73 20 -9 9 -16 10 -20 4 -7 -12 -25
-13 -43 -1 -10 6 -7 18 17 53 37 54 37 58 11 81 -29 25 -27 81 5 112 25 26 78
34 90 15z m-545 -376 c0 -17 -22 -14 -28 4 -2 7 3 12 12 12 9 0 16 -7 16 -16z
m478 -616 c-2 -6 -10 -14 -16 -16 -7 -2 -10 2 -6 12 7 18 28 22 22 4z"/>
<path d="M1330 2113 c-42 -15 -55 -87 -20 -118 26 -24 26 -28 -10 -81 -17 -24
-26 -44 -20 -44 5 0 10 5 10 10 0 15 28 12 37 -4 4 -8 20 -17 34 -21 23 -6 28
-3 37 24 13 37 27 41 18 6 -8 -30 2 -54 14 -34 6 9 12 9 25 -4 9 -10 21 -17
26 -17 5 0 9 -7 9 -16 0 -23 30 -13 51 16 27 36 16 67 -28 75 -21 4 -40 2 -49
-6 -11 -9 -14 -8 -14 5 0 10 -8 16 -21 16 -16 0 -19 4 -14 20 4 13 2 20 -8 20
-7 0 -21 -21 -29 -47 l-16 -48 -1 51 c-1 27 -6 55 -12 61 -7 7 -6 12 5 16 9 4
16 2 16 -3 0 -21 28 -9 34 15 9 35 23 32 18 -4 -6 -45 15 -45 26 0 9 37 9 42
-9 46 -14 4 -18 11 -13 25 4 15 2 19 -12 16 -10 -2 -21 -16 -26 -33 -8 -31
-42 -60 -58 -50 -13 8 -13 51 0 76 11 20 40 26 40 8 0 -5 5 -7 12 -3 7 5 5 11
-7 21 -20 14 -22 14 -45 6z m-4 -210 c-10 -10 -19 5 -10 18 6 11 8 11 12 0 2
-7 1 -15 -2 -18z m167 -33 c-7 -25 -23 -37 -23 -16 0 23 11 46 20 41 5 -3 6
-14 3 -25z m28 -47 c-9 -17 -10 -17 -16 0 -4 9 -1 25 6 34 13 15 14 15 17 0 2
-9 -1 -24 -7 -34z"/>
<path d="M1467 2016 c-14 -42 -13 -56 4 -56 7 0 16 29 25 78 8 39 -14 24 -29
-22z"/>
<path d="M1498 1980 c-11 -33 -13 -52 -6 -56 6 -4 14 -1 18 7 11 16 41 21 56
8 6 -5 19 -6 29 -3 12 5 15 14 11 35 -3 17 0 30 7 33 7 4 2 4 -11 2 -13 -2
-35 2 -50 10 -15 8 -30 14 -33 14 -3 0 -12 -22 -21 -50z m45 0 c-3 -11 -9 -20
-14 -20 -11 0 -11 3 -3 24 9 23 23 20 17 -4z m46 -29 c-3 -6 -10 -7 -18 -2 -7
5 -10 14 -6 21 9 14 29 -2 24 -19z"/>
<path d="M1598 1914 c-30 -28 -35 -38 -26 -48 24 -26 102 43 83 74 -10 16 -17
12 -57 -26z m37 7 c-3 -6 -11 -11 -17 -11 -6 0 -6 6 2 15 14 17 26 13 15 -4z"/>
<path d="M1566 1831 c-4 -7 -5 -15 -2 -18 9 -9 19 4 14 18 -4 11 -6 11 -12 0z"/>
<path d="M915 1780 c-3 -5 1 -10 10 -10 9 0 13 5 10 10 -3 6 -8 10 -10 10 -2
0 -7 -4 -10 -10z"/>
<path d="M764 1558 c-23 -13 -53 -49 -54 -64 0 -6 24 -14 53 -17 28 -3 60 -8
69 -12 12 -5 16 -2 13 12 -2 10 -6 34 -9 53 -5 28 -11 35 -29 36 -13 1 -32 -3
-43 -8z"/>
<path d="M784 1429 c-10 -17 23 -46 37 -32 7 7 9 19 6 27 -7 18 -33 21 -43 5z"/>
<path d="M666 1365 c-10 -33 -24 -75 -32 -93 -8 -18 -14 -39 -14 -47 0 -8 -5
-15 -11 -15 -7 0 -8 -7 -4 -17 4 -10 8 -26 9 -35 2 -25 37 -48 58 -37 9 5 23
7 30 6 7 -2 9 -2 4 1 -4 2 -2 8 5 13 10 6 11 9 2 9 -7 0 -13 4 -13 10 0 5 8 6
18 3 14 -6 15 -4 4 9 -11 14 -7 15 45 11 32 -3 62 -9 67 -14 6 -5 14 -9 18 -9
12 0 10 38 -2 45 -16 10 -11 23 8 20 60 -12 82 -13 82 -5 0 6 -7 10 -15 10 -8
0 -29 15 -46 33 -32 33 -32 34 -51 15 -13 -13 -30 -18 -55 -16 -47 4 -76 42
-83 111 l-6 52 -18 -60z m160 -157 c1 -11 -4 -14 -16 -11 -11 3 -16 11 -13 19
7 19 25 13 29 -8z"/>
<path d="M953 1394 c-7 -18 11 -39 25 -30 12 7 4 46 -9 46 -6 0 -12 -7 -16
-16z"/>
<path d="M755 1150 c-3 -5 -1 -10 4 -10 6 0 11 5 11 10 0 6 -2 10 -4 10 -3 0
-8 -4 -11 -10z"/>
<path d="M936 1141 c-4 -5 -2 -12 3 -15 5 -4 12 -2 15 3 4 5 2 12 -3 15 -5 4
-12 2 -15 -3z"/>
<path d="M848 1133 c6 -2 10 -9 7 -14 -4 -5 1 -6 10 -2 13 5 14 7 3 14 -7 5
-17 8 -23 8 -5 0 -4 -3 3 -6z"/>
<path d="M740 1120 c0 -5 7 -10 16 -10 8 0 12 5 9 10 -3 6 -10 10 -16 10 -5 0
-9 -4 -9 -10z"/>
<path d="M613 1112 c-22 -15 -34 -56 -39 -138 -4 -58 -2 -89 5 -94 8 -4 0 -21
-21 -50 -64 -84 -68 -92 -68 -156 0 -44 5 -68 18 -85 52 -67 58 -126 37 -334
-6 -58 -5 -61 29 -101 19 -22 76 -64 125 -93 l91 -52 42 23 c24 13 49 29 56
35 7 7 19 13 27 13 7 0 15 4 17 10 2 5 26 12 53 16 28 3 60 7 72 10 32 6 83
53 83 76 0 11 -16 49 -36 84 -36 64 -72 94 -113 94 -10 0 -21 5 -23 11 -5 14
-58 22 -58 9 0 -5 12 -10 27 -12 27 -3 44 -24 21 -25 -7 0 -22 -4 -32 -9 -13
-5 -17 -4 -13 3 10 16 -21 25 -43 13 -10 -6 -20 -10 -23 -10 -4 0 -1 110 3
120 1 3 1 15 0 28 -1 20 2 22 27 16 15 -3 41 -12 56 -20 27 -12 30 -11 52 14
22 25 28 40 23 60 -1 4 -20 13 -42 20 -23 7 -47 15 -55 18 -11 3 -11 7 -1 19
8 10 21 13 33 9 13 -4 17 -2 13 5 -8 12 6 15 18 4 15 -15 44 -12 42 5 0 9 5
16 12 14 17 -3 15 15 -3 22 -8 3 -15 11 -15 17 0 8 4 8 13 1 10 -9 13 -4 13
25 0 20 7 40 15 47 9 6 16 18 16 26 0 8 4 27 8 43 5 18 3 27 -5 27 -6 0 -8 5
-5 11 4 6 -2 5 -14 -3 -12 -7 -21 -17 -21 -23 0 -6 -11 -26 -24 -45 -19 -28
-22 -40 -15 -65 6 -19 5 -31 -1 -33 -5 -2 -10 -10 -10 -17 0 -8 -8 -18 -17
-23 -12 -7 -21 -4 -33 11 -15 18 -22 19 -51 11 -25 -7 -33 -15 -31 -28 2 -11
-2 -17 -10 -14 -18 6 -23 58 -5 58 7 0 14 8 14 17 0 24 -34 54 -53 46 -10 -4
-22 1 -30 12 -11 15 -16 16 -29 5 -14 -11 -19 -7 -16 13 1 4 -9 11 -21 16 -48
19 -108 91 -108 130 1 26 1 26 14 -5 22 -49 65 -82 121 -93 78 -15 145 -19
145 -10 0 5 -11 9 -25 9 -103 0 -195 56 -195 119 0 40 10 39 36 -2 26 -40 75
-57 163 -57 56 0 64 3 100 35 41 37 51 42 51 23 0 -26 -54 -88 -86 -100 -27
-9 -31 -15 -22 -26 26 -30 103 19 135 86 8 17 19 32 24 32 5 0 9 6 9 14 0 7 7
19 15 26 16 13 20 31 8 28 -5 0 -16 2 -25 6 -11 5 -23 2 -33 -8 -21 -21 -92
-21 -209 0 -108 19 -156 37 -163 63 -6 22 -25 33 -40 23z m77 -322 c0 -5 -7
-7 -15 -4 -8 4 -15 8 -15 10 0 2 7 4 15 4 8 0 15 -4 15 -10z m-152 -32 c-2 -6
-10 -14 -16 -16 -7 -2 -10 2 -6 12 7 18 28 22 22 4z m22 -133 c0 -8 -4 -15
-10 -15 -5 0 -10 7 -10 15 0 8 5 15 10 15 6 0 10 -7 10 -15z m480 -311 c0 -8
-5 -12 -10 -9 -6 4 -8 11 -5 16 9 14 15 11 15 -7z m-72 -49 c17 0 32 -3 32 -7
0 -5 -29 -8 -65 -8 -60 0 -75 6 -59 23 4 4 19 3 33 -1 14 -4 41 -7 59 -7z"/>
<path d="M805 1100 c-4 -6 -5 -13 -4 -14 11 -9 90 -13 95 -5 3 5 -10 9 -28 9
-19 0 -39 5 -45 11 -8 8 -13 8 -18 -1z"/>
<path d="M1436 1042 c-3 -5 1 -9 9 -9 8 0 12 4 9 9 -3 4 -7 8 -9 8 -2 0 -6 -4
-9 -8z"/>
<path d="M1491 925 c-11 -32 -24 -40 -59 -36 -15 2 -42 -58 -41 -91 0 -13 -2
-43 -6 -68 -5 -38 -4 -43 7 -29 7 9 37 31 67 49 74 46 96 103 70 179 -14 40
-22 39 -38 -4z m29 -39 c0 -15 -12 -33 -35 -50 -19 -15 -35 -23 -35 -18 0 8
60 90 68 91 1 1 2 -10 2 -23z"/>
<path d="M1216 735 c-3 -8 -1 -15 4 -15 6 0 10 7 10 15 0 8 -2 15 -4 15 -2 0
-6 -7 -10 -15z"/>
<path d="M1301 724 c-6 -14 -11 -32 -11 -40 0 -8 -10 -25 -22 -38 -32 -32 -68
-83 -68 -95 0 -6 12 -18 28 -28 15 -9 36 -25 47 -34 20 -17 22 -17 53 7 37 29
41 49 11 57 -16 4 -19 11 -14 26 3 12 2 21 -3 21 -16 0 -21 61 -5 67 14 6 18
69 4 77 -4 3 -13 -6 -20 -20z"/>
<path d="M875 460 c-3 -5 -1 -10 4 -10 6 0 11 5 11 10 0 6 -2 10 -4 10 -3 0
-8 -4 -11 -10z"/>
<path d="M930 460 c0 -5 5 -10 10 -10 6 0 10 5 10 10 0 6 -4 10 -10 10 -5 0
-10 -4 -10 -10z"/>
<path d="M1210 289 c0 -5 5 -7 10 -4 6 3 10 8 10 11 0 2 -4 4 -10 4 -5 0 -10
-5 -10 -11z"/>
</g>
</svg>
